<svg width="33" height="36" xmlns="http://www.w3.org/2000/svg"><path d="M0 18c0 1.563.231 3.067.637 4.5H3.79A13.368 13.368 0 013 18C3 10.557 9.055 4.5 16.5 4.5c2.559 0 4.944.726 6.982 1.971L20.696 10.5h10.49L27.958 0l-2.773 4.01C22.659 2.436 19.696 1.5 16.5 1.5 7.389 1.5 0 8.887 0 18zm9.531 11.538A13.355 13.355 0 0016.5 31.5C23.943 31.5 30 25.443 30 18c0-1.58-.286-3.09-.787-4.5h3.15A16.44 16.44 0 0133 18c0 9.113-7.387 16.5-16.5 16.5-3.19 0-6.149-.931-8.67-2.5l-2.78 4-3.228-10.483h10.492L9.53 29.538z" fill="#BDBDBD" fill-rule="evenodd"/></svg>