<svg width="400" height="400" baseProfile="full" fill="#2faa2b" xmlns="http://www.w3.org/2000/svg"><path d="M161.061 400s30.21-8.547 44.075-34.068c13.865-25.522-4.704-32.167 9.478-56.505 14.181-24.338 35.442-41.65 48.212-42.505 12.77-.855 5.331 28.798 12.89 38.415 7.558 9.617.26 20.88 27.431 12.89 27.172-7.992 34.295-9.477 51.657-36.151 17.362-26.675-1.3-54.958 8.38-67.07 9.68-12.114 36.816-43.079 36.816-43.079V400H161.061zM0 274.813s39.293-21.385 69.702-51.837c30.41-30.452 41.627-44.079 50.544-68.577 8.917-24.5-11.342-39.13-5.189-56.035 6.153-16.904 20.16-23.423 34.412-24.255 14.251-.831 4.951 29.433 31.234 20.426 26.282-9.008 28.195-38.34 46.31-47.002 18.115-8.662 26.344 21.33 51.795 15.647 25.451-5.682 26.034-26.686 38.284-31.16 12.25-4.476 17.605-13.43 50.204-6.452C399.896 32.545 400 49.002 400 49.002V0H0v274.813z"/></svg>