<svg width="131" height="76" xmlns="http://www.w3.org/2000/svg"><path d="M105.84 71.308c-11.417 0-20.707-9.324-20.707-20.784 0-8.569 5.195-15.94 12.587-19.116l5.757 20.875a2.133 2.133 0 002.62 1.49 2.137 2.137 0 001.483-2.63l-5.792-20.999a20.667 20.667 0 014.052-.404c11.417 0 20.706 9.324 20.706 20.784 0 11.46-9.289 20.784-20.706 20.784zM65.602 44.802a7.737 7.737 0 00-4.262-1.277c-.079 0-.155.01-.234.012l-8.765-25.59 37.876-.289-24.615 27.144zM24.963 71.308c-11.417 0-20.706-9.324-20.706-20.784 0-11.46 9.289-20.784 20.706-20.784 3.665 0 7.104.97 10.095 2.654L23.486 50.376a2.141 2.141 0 00-.09 2.164 2.124 2.124 0 001.841 1.13l20.117.344c-1.661 9.8-10.16 17.294-20.39 17.294zM45.63 49.745l-16.49-.28 9.396-14.6a20.744 20.744 0 017.094 14.88zm15.71 5.19a3.52 3.52 0 01-2.075-.683 3.56 3.56 0 01-1.19-4.294c.12-.28.284-.532.468-.768a3.529 3.529 0 012.797-1.393c.464 0 .905.096 1.312.259l.003.001a3.57 3.57 0 012.24 3.31c0 .216-.026.426-.064.632-.3 1.665-1.747 2.937-3.49 2.937zM48.39 19.55l8.656 25.273a7.855 7.855 0 00-3.374 5.06l-3.763-.064c-.207-7.466-3.678-14.128-9.037-18.587l7.517-11.682zm57.45 5.918c-1.78 0-3.516.192-5.19.548L94.77 4.7c10.278-1.014 13.702.003 14.835.74.645.419 1.107 1.358 1.264 2.577.23 1.778-.263 3.405-.706 3.894-.886.977-3.194 1.546-5.882 1.44a2.13 2.13 0 00-2.21 2.051 2.134 2.134 0 002.046 2.218c2.393.093 6.768-.155 9.196-2.834 1.425-1.575 2.14-4.517 1.776-7.32-.323-2.502-1.45-4.495-3.17-5.613-3.108-2.018-9.501-2.377-20.117-1.13a2.13 2.13 0 00-1.518.93 2.146 2.146 0 00-.286 1.762l2.745 9.951-41.86.319-1.876-5.472h8.634a2.133 2.133 0 002.129-2.137c0-1.18-.953-2.136-2.129-2.136H38.486a2.133 2.133 0 00-2.128 2.136c0 1.18.953 2.137 2.128 2.137h6.02l2.138 6.241c-.064.075-.135.144-.19.228l-9.082 14.115a24.728 24.728 0 00-12.409-3.33C11.2 25.467 0 36.707 0 50.524 0 64.34 11.199 75.581 24.963 75.581c12.56 0 22.977-9.36 24.706-21.493l4.381.074c1.125 2.945 3.965 5.045 7.29 5.045 4.308 0 7.812-3.517 7.812-7.84a7.815 7.815 0 00-.741-3.313l25.993-28.667 2.173 7.876c-9.19 3.701-15.7 12.73-15.7 23.261 0 13.816 11.198 25.057 24.963 25.057 13.764 0 24.963-11.24 24.963-25.057 0-13.816-11.199-25.057-24.963-25.057z" fill="#4B4841" fill-rule="evenodd"/></svg>