<svg width="131" height="66" xmlns="http://www.w3.org/2000/svg"><g fill="none" fill-rule="evenodd"><path d="M11.901 4.43l6.744 9.088 71.336 1.296 13.035.372 11.8 7.354 9.894 11.246 4.075 10.8-2.537 5.124-8.838 2.167-31.94 1.112-9.392-1.362-11.246-6.549-7.476-12.227-40.035-6.67-1.918 3.102H8.05l-1.177-4.14 1.482-8.032-3.89-13.663 7.437.983z" fill="#FFCE4E"/><path d="M104.955 61.337H79.283v-6.92c.046.01.092.017.138.023 4.62.55 10.58.839 17.231.839h.003c2.438 0 4.906-.04 7.373-.12l.927-.045v6.223zM74.31 48.687c-7.201-2.532-11.728-10.203-14.262-16.214a2.336 2.336 0 00-1.717-1.386l-40.014-7.582a2.325 2.325 0 00-2.392 1.02l-2.055 3.152-4.354-.257 1.79-8.81a2.32 2.32 0 00-.149-1.397L5.996 5.408l4.912.288 6.885 9.846c.437.625 1.15.998 1.913.998h66.64c1.101 2.309 4.748 9.882 5.322 10.999 5.747 11.174 9.473 12.884 11.801 13.106.634.116 3.416.593 6.205.593 5.98 0 11.659-1.02 15.367-2.71 1.002 2.213 1.483 4.263 1.22 5.94-.147.953-.598 3.855-7.124 4.836-2.48.373-5.72.69-9.331.916l-5.962.28a220.75 220.75 0 01-7.19.117h-.002c-6.427 0-12.162-.276-16.591-.796l-5.75-1.135zM93.55 16.54c.058.004.119.006.178.008 5.126.034 8.982.672 11.464 1.895 6.137 3.023 13.33 9.685 17.547 16.008-3.067 1.31-7.956 2.125-13.065 2.125-2.646 0-5.42-.528-5.448-.532a2.122 2.122 0 00-.273-.037c-1.034-.075-3.913-2.39-8.134-10.598-.427-.831-2.793-5.736-4.297-8.87h2.028zm37.216 42.614a2.335 2.335 0 00-3.118-1.08l-6.745 3.263h-11.28v-6.441l.437-.021c3.781-.236 7.161-.568 9.772-.961 8.194-1.231 10.528-5.427 11.044-8.728 1.591-10.223-13.232-25.807-23.62-30.925-3.128-1.542-7.478-2.318-13.299-2.375a2.833 2.833 0 00-.213-.009h-9.792V4.663h41.375a2.332 2.332 0 100-4.663H37.91a2.333 2.333 0 00-2.334 2.331 2.333 2.333 0 002.334 2.332h41.375v7.214h-58.36l-6.836-9.776a2.338 2.338 0 00-1.777-.993L2.471.53A2.333 2.333 0 00.195 3.79l6.39 14.615-2.177 10.724a2.33 2.33 0 002.15 2.79l8.393.493a2.33 2.33 0 002.094-1.055l1.94-2.979 37.263 7.06c4.158 9.29 9.914 15.401 16.7 17.71.098.033.198.061.3.08l1.367.27v7.84h-15.75a2.333 2.333 0 00-2.335 2.332A2.333 2.333 0 0058.864 66h63.11l7.709-3.73a2.33 2.33 0 001.083-3.116z" fill="#4B4841"/></g></svg>